<mxfile host="app.diagrams.net" modified="2023-06-20T14:35:26.557Z" agent="Mozilla/5.0 (X11; Ubuntu; Linux x86_64; rv:109.0) Gecko/20100101 Firefox/113.0" etag="zkNEBiVgnQ1ztjomWv2d" version="21.5.0" type="github" pages="7">
  <diagram name="LOGIN" id="hZA0PHkn2P-y6bIv3APH">
    <mxGraphModel dx="1360" dy="795" grid="1" gridSize="10" guides="1" tooltips="1" connect="1" arrows="1" fold="1" page="1" pageScale="1" pageWidth="827" pageHeight="1169" math="0" shadow="0">
      <root>
        <mxCell id="0" />
        <mxCell id="1" parent="0" />
        <mxCell id="ovYJQYCCxWA3n5wqOHCO-15" value="" style="whiteSpace=wrap;html=1;aspect=fixed;" parent="1" vertex="1">
          <mxGeometry x="129" y="160" width="550" height="550" as="geometry" />
        </mxCell>
        <mxCell id="ovYJQYCCxWA3n5wqOHCO-26" style="edgeStyle=orthogonalEdgeStyle;rounded=0;orthogonalLoop=1;jettySize=auto;html=1;" parent="1" source="ovYJQYCCxWA3n5wqOHCO-1" target="ovYJQYCCxWA3n5wqOHCO-5" edge="1">
          <mxGeometry relative="1" as="geometry" />
        </mxCell>
        <mxCell id="ovYJQYCCxWA3n5wqOHCO-27" style="edgeStyle=orthogonalEdgeStyle;rounded=0;orthogonalLoop=1;jettySize=auto;html=1;" parent="1" source="ovYJQYCCxWA3n5wqOHCO-1" target="ovYJQYCCxWA3n5wqOHCO-14" edge="1">
          <mxGeometry relative="1" as="geometry" />
        </mxCell>
        <mxCell id="ovYJQYCCxWA3n5wqOHCO-1" value="USUÁRIO" style="shape=umlActor;verticalLabelPosition=bottom;verticalAlign=top;html=1;outlineConnect=0;" parent="1" vertex="1">
          <mxGeometry x="80" y="330" width="40" height="60" as="geometry" />
        </mxCell>
        <mxCell id="ovYJQYCCxWA3n5wqOHCO-34" style="edgeStyle=orthogonalEdgeStyle;rounded=0;orthogonalLoop=1;jettySize=auto;html=1;" parent="1" source="ovYJQYCCxWA3n5wqOHCO-5" target="ovYJQYCCxWA3n5wqOHCO-21" edge="1">
          <mxGeometry relative="1" as="geometry" />
        </mxCell>
        <mxCell id="ovYJQYCCxWA3n5wqOHCO-35" value="Include" style="edgeLabel;html=1;align=center;verticalAlign=middle;resizable=0;points=[];" parent="ovYJQYCCxWA3n5wqOHCO-34" vertex="1" connectable="0">
          <mxGeometry x="-0.2814" y="-1" relative="1" as="geometry">
            <mxPoint as="offset" />
          </mxGeometry>
        </mxCell>
        <mxCell id="ovYJQYCCxWA3n5wqOHCO-5" value="Cadastrar login" style="ellipse;whiteSpace=wrap;html=1;align=center;fontFamily=Verdana;" parent="1" vertex="1">
          <mxGeometry x="240" y="380" width="120" height="50" as="geometry" />
        </mxCell>
        <mxCell id="ovYJQYCCxWA3n5wqOHCO-32" style="edgeStyle=orthogonalEdgeStyle;rounded=0;orthogonalLoop=1;jettySize=auto;html=1;" parent="1" source="ovYJQYCCxWA3n5wqOHCO-14" target="ovYJQYCCxWA3n5wqOHCO-21" edge="1">
          <mxGeometry relative="1" as="geometry" />
        </mxCell>
        <mxCell id="ovYJQYCCxWA3n5wqOHCO-33" value="&lt;div&gt;Include&lt;/div&gt;" style="edgeLabel;html=1;align=center;verticalAlign=middle;resizable=0;points=[];" parent="ovYJQYCCxWA3n5wqOHCO-32" vertex="1" connectable="0">
          <mxGeometry x="0.2679" relative="1" as="geometry">
            <mxPoint as="offset" />
          </mxGeometry>
        </mxCell>
        <mxCell id="ovYJQYCCxWA3n5wqOHCO-14" value="Realizar login" style="ellipse;whiteSpace=wrap;html=1;" parent="1" vertex="1">
          <mxGeometry x="240" y="290" width="120" height="50" as="geometry" />
        </mxCell>
        <mxCell id="ovYJQYCCxWA3n5wqOHCO-21" value="Validar dados" style="ellipse;whiteSpace=wrap;html=1;" parent="1" vertex="1">
          <mxGeometry x="414" y="337.5" width="100" height="52.5" as="geometry" />
        </mxCell>
        <mxCell id="ovYJQYCCxWA3n5wqOHCO-62" style="edgeStyle=orthogonalEdgeStyle;rounded=0;orthogonalLoop=1;jettySize=auto;html=1;" parent="1" source="ovYJQYCCxWA3n5wqOHCO-48" target="ovYJQYCCxWA3n5wqOHCO-5" edge="1">
          <mxGeometry relative="1" as="geometry" />
        </mxCell>
        <mxCell id="ovYJQYCCxWA3n5wqOHCO-48" value="Experiente " style="ellipse;whiteSpace=wrap;html=1;" parent="1" vertex="1">
          <mxGeometry x="190" y="510" width="90" height="40" as="geometry" />
        </mxCell>
        <mxCell id="ovYJQYCCxWA3n5wqOHCO-63" style="edgeStyle=orthogonalEdgeStyle;rounded=0;orthogonalLoop=1;jettySize=auto;html=1;entryX=0.5;entryY=1;entryDx=0;entryDy=0;" parent="1" source="ovYJQYCCxWA3n5wqOHCO-51" target="ovYJQYCCxWA3n5wqOHCO-5" edge="1">
          <mxGeometry relative="1" as="geometry" />
        </mxCell>
        <mxCell id="ovYJQYCCxWA3n5wqOHCO-51" value="Iniciante" style="ellipse;whiteSpace=wrap;html=1;" parent="1" vertex="1">
          <mxGeometry x="330" y="510" width="90" height="40" as="geometry" />
        </mxCell>
        <mxCell id="ovYJQYCCxWA3n5wqOHCO-66" value="ADM" style="shape=umlActor;verticalLabelPosition=bottom;verticalAlign=top;html=1;outlineConnect=0;" parent="1" vertex="1">
          <mxGeometry x="80" y="200" width="30" height="70" as="geometry" />
        </mxCell>
        <mxCell id="ovYJQYCCxWA3n5wqOHCO-68" value="" style="endArrow=none;html=1;rounded=0;" parent="1" source="ovYJQYCCxWA3n5wqOHCO-66" target="ovYJQYCCxWA3n5wqOHCO-14" edge="1">
          <mxGeometry width="50" height="50" relative="1" as="geometry">
            <mxPoint x="260" y="450" as="sourcePoint" />
            <mxPoint x="310" y="400" as="targetPoint" />
          </mxGeometry>
        </mxCell>
      </root>
    </mxGraphModel>
  </diagram>
  <diagram id="XSp45XASlCJ7IGEEw-yv" name="INICIANTE">
    <mxGraphModel dx="2770" dy="1136" grid="1" gridSize="10" guides="1" tooltips="1" connect="1" arrows="1" fold="1" page="1" pageScale="1" pageWidth="827" pageHeight="1169" math="0" shadow="0">
      <root>
        <mxCell id="0" />
        <mxCell id="1" parent="0" />
        <mxCell id="gn_1VX7BuHXxjfAbCe3B-3" value="" style="whiteSpace=wrap;html=1;aspect=fixed;" vertex="1" parent="1">
          <mxGeometry x="-610" y="320" width="412" height="412" as="geometry" />
        </mxCell>
        <mxCell id="Y7ZTJAjLVRMH3Ij9VLCF-3" style="edgeStyle=orthogonalEdgeStyle;rounded=0;orthogonalLoop=1;jettySize=auto;html=1;verticalAlign=middle;" parent="1" source="Y7ZTJAjLVRMH3Ij9VLCF-1" target="Y7ZTJAjLVRMH3Ij9VLCF-2" edge="1">
          <mxGeometry relative="1" as="geometry" />
        </mxCell>
        <mxCell id="Y7ZTJAjLVRMH3Ij9VLCF-1" value="JOGADOR" style="shape=umlActor;verticalLabelPosition=bottom;verticalAlign=middle;html=1;outlineConnect=0;" parent="1" vertex="1">
          <mxGeometry x="-670" y="350" width="30" height="60" as="geometry" />
        </mxCell>
        <mxCell id="Y7ZTJAjLVRMH3Ij9VLCF-5" value="INCLUDE" style="edgeStyle=orthogonalEdgeStyle;rounded=0;orthogonalLoop=1;jettySize=auto;html=1;verticalAlign=middle;" parent="1" source="Y7ZTJAjLVRMH3Ij9VLCF-2" target="Y7ZTJAjLVRMH3Ij9VLCF-4" edge="1">
          <mxGeometry relative="1" as="geometry" />
        </mxCell>
        <mxCell id="Y7ZTJAjLVRMH3Ij9VLCF-2" value="JOGAR PARTIDA" style="ellipse;whiteSpace=wrap;html=1;verticalAlign=middle;" parent="1" vertex="1">
          <mxGeometry x="-470" y="340" width="120" height="80" as="geometry" />
        </mxCell>
        <mxCell id="Y7ZTJAjLVRMH3Ij9VLCF-8" value="EXTENDS" style="edgeStyle=orthogonalEdgeStyle;rounded=0;orthogonalLoop=1;jettySize=auto;html=1;verticalAlign=middle;" parent="1" source="Y7ZTJAjLVRMH3Ij9VLCF-4" target="Y7ZTJAjLVRMH3Ij9VLCF-6" edge="1">
          <mxGeometry relative="1" as="geometry" />
        </mxCell>
        <mxCell id="Y7ZTJAjLVRMH3Ij9VLCF-4" value="&lt;div&gt;VALIDAR NIVEL&lt;/div&gt;" style="ellipse;whiteSpace=wrap;html=1;verticalAlign=middle;" parent="1" vertex="1">
          <mxGeometry x="-470" y="470" width="120" height="80" as="geometry" />
        </mxCell>
        <mxCell id="Y7ZTJAjLVRMH3Ij9VLCF-6" value="UTILIZAR BOOT" style="ellipse;whiteSpace=wrap;html=1;verticalAlign=middle;" parent="1" vertex="1">
          <mxGeometry x="-470" y="625" width="120" height="80" as="geometry" />
        </mxCell>
      </root>
    </mxGraphModel>
  </diagram>
  <diagram id="mUb7QC4vpLToM47_VJ34" name="EXPERIENTE">
    <mxGraphModel dx="2010" dy="691" grid="1" gridSize="10" guides="1" tooltips="1" connect="1" arrows="1" fold="1" page="1" pageScale="1" pageWidth="827" pageHeight="1169" math="0" shadow="0">
      <root>
        <mxCell id="0" />
        <mxCell id="1" parent="0" />
        <mxCell id="wqQa_sTgSu1rJEJxdTE4-1" value="" style="whiteSpace=wrap;html=1;aspect=fixed;" vertex="1" parent="1">
          <mxGeometry x="-640" y="320" width="550" height="550" as="geometry" />
        </mxCell>
        <mxCell id="_ncgNJ4yc4Qrb2IzcUtX-1" style="edgeStyle=orthogonalEdgeStyle;rounded=0;orthogonalLoop=1;jettySize=auto;html=1;" parent="1" source="-bfFvp2IGxRgPHzpdXb7-1" target="L4vd01nFqi9UakRAQKSe-1" edge="1">
          <mxGeometry relative="1" as="geometry" />
        </mxCell>
        <mxCell id="-bfFvp2IGxRgPHzpdXb7-1" value="JOGADOR" style="shape=umlActor;verticalLabelPosition=bottom;verticalAlign=top;html=1;outlineConnect=0;" parent="1" vertex="1">
          <mxGeometry x="-725" y="540" width="30" height="60" as="geometry" />
        </mxCell>
        <mxCell id="YpZn65XvgU5LnDdJl6_4-1" value="EXTEND" style="edgeStyle=orthogonalEdgeStyle;rounded=0;orthogonalLoop=1;jettySize=auto;html=1;" parent="1" source="L4vd01nFqi9UakRAQKSe-1" target="YpZn65XvgU5LnDdJl6_4-2" edge="1">
          <mxGeometry relative="1" as="geometry">
            <mxPoint x="-445" y="760" as="targetPoint" />
          </mxGeometry>
        </mxCell>
        <mxCell id="YpZn65XvgU5LnDdJl6_4-5" value="EXTEND" style="edgeStyle=orthogonalEdgeStyle;rounded=0;orthogonalLoop=1;jettySize=auto;html=1;" parent="1" source="L4vd01nFqi9UakRAQKSe-1" target="YpZn65XvgU5LnDdJl6_4-3" edge="1">
          <mxGeometry relative="1" as="geometry" />
        </mxCell>
        <mxCell id="YpZn65XvgU5LnDdJl6_4-9" style="edgeStyle=orthogonalEdgeStyle;rounded=0;orthogonalLoop=1;jettySize=auto;html=1;" parent="1" source="L4vd01nFqi9UakRAQKSe-1" target="YpZn65XvgU5LnDdJl6_4-6" edge="1">
          <mxGeometry relative="1" as="geometry">
            <Array as="points">
              <mxPoint x="-445" y="680" />
              <mxPoint x="-445" y="680" />
            </Array>
          </mxGeometry>
        </mxCell>
        <mxCell id="yEWcvuvEfVQxIspnvUMl-1" value="EXTEND" style="edgeLabel;html=1;align=center;verticalAlign=middle;resizable=0;points=[];" parent="YpZn65XvgU5LnDdJl6_4-9" vertex="1" connectable="0">
          <mxGeometry x="0.278" y="-3" relative="1" as="geometry">
            <mxPoint as="offset" />
          </mxGeometry>
        </mxCell>
        <mxCell id="L4vd01nFqi9UakRAQKSe-1" value="ESCOLHER MODO" style="ellipse;whiteSpace=wrap;html=1;" parent="1" vertex="1">
          <mxGeometry x="-505" y="530" width="120" height="80" as="geometry" />
        </mxCell>
        <mxCell id="YpZn65XvgU5LnDdJl6_4-2" value="JOGAR ONLINE" style="ellipse;whiteSpace=wrap;html=1;" parent="1" vertex="1">
          <mxGeometry x="-241" y="530" width="120" height="80" as="geometry" />
        </mxCell>
        <mxCell id="YpZn65XvgU5LnDdJl6_4-3" value="&lt;div&gt;JOGAR CONTRA COMPUTADOR&lt;/div&gt;" style="ellipse;whiteSpace=wrap;html=1;" parent="1" vertex="1">
          <mxGeometry x="-505" y="330" width="120" height="80" as="geometry" />
        </mxCell>
        <mxCell id="YpZn65XvgU5LnDdJl6_4-6" value="APRENDER" style="ellipse;whiteSpace=wrap;html=1;" parent="1" vertex="1">
          <mxGeometry x="-505" y="740" width="120" height="80" as="geometry" />
        </mxCell>
      </root>
    </mxGraphModel>
  </diagram>
  <diagram id="OHX4urW0uHLC3KUGbgtB" name="COMUNIDADE">
    <mxGraphModel dx="1360" dy="795" grid="1" gridSize="10" guides="1" tooltips="1" connect="1" arrows="1" fold="1" page="1" pageScale="1" pageWidth="827" pageHeight="1169" math="0" shadow="0">
      <root>
        <mxCell id="0" />
        <mxCell id="1" parent="0" />
        <mxCell id="IVq2sTEwQs9I_fWbFkm6-12" value="" style="whiteSpace=wrap;html=1;aspect=fixed;" vertex="1" parent="1">
          <mxGeometry x="90" y="95" width="550" height="550" as="geometry" />
        </mxCell>
        <mxCell id="IVq2sTEwQs9I_fWbFkm6-4" style="edgeStyle=orthogonalEdgeStyle;rounded=0;orthogonalLoop=1;jettySize=auto;html=1;" edge="1" parent="1" source="IVq2sTEwQs9I_fWbFkm6-2" target="IVq2sTEwQs9I_fWbFkm6-3">
          <mxGeometry relative="1" as="geometry" />
        </mxCell>
        <mxCell id="IVq2sTEwQs9I_fWbFkm6-2" value="JOGADOR" style="shape=umlActor;verticalLabelPosition=bottom;verticalAlign=top;html=1;outlineConnect=0;" vertex="1" parent="1">
          <mxGeometry x="50" y="340" width="30" height="60" as="geometry" />
        </mxCell>
        <mxCell id="IVq2sTEwQs9I_fWbFkm6-6" value="EXTEND" style="edgeStyle=orthogonalEdgeStyle;rounded=0;orthogonalLoop=1;jettySize=auto;html=1;" edge="1" parent="1" source="IVq2sTEwQs9I_fWbFkm6-3" target="IVq2sTEwQs9I_fWbFkm6-7">
          <mxGeometry relative="1" as="geometry">
            <mxPoint x="270" y="540" as="targetPoint" />
          </mxGeometry>
        </mxCell>
        <mxCell id="IVq2sTEwQs9I_fWbFkm6-9" value="EXTEND" style="edgeStyle=orthogonalEdgeStyle;rounded=0;orthogonalLoop=1;jettySize=auto;html=1;" edge="1" parent="1" source="IVq2sTEwQs9I_fWbFkm6-3" target="IVq2sTEwQs9I_fWbFkm6-8">
          <mxGeometry relative="1" as="geometry" />
        </mxCell>
        <mxCell id="IVq2sTEwQs9I_fWbFkm6-3" value="&lt;div&gt;LISTAS DE JOGADORES&lt;/div&gt;" style="ellipse;whiteSpace=wrap;html=1;" vertex="1" parent="1">
          <mxGeometry x="210" y="330" width="120" height="80" as="geometry" />
        </mxCell>
        <mxCell id="IVq2sTEwQs9I_fWbFkm6-7" value="CONVERSAR AMIGOS" style="ellipse;whiteSpace=wrap;html=1;" vertex="1" parent="1">
          <mxGeometry x="210" y="500" width="120" height="80" as="geometry" />
        </mxCell>
        <mxCell id="IVq2sTEwQs9I_fWbFkm6-8" value="CONVERSAR ONLINE" style="ellipse;whiteSpace=wrap;html=1;" vertex="1" parent="1">
          <mxGeometry x="420" y="330" width="120" height="80" as="geometry" />
        </mxCell>
        <mxCell id="IVq2sTEwQs9I_fWbFkm6-10" value="&lt;div&gt;ADICIONAR&lt;/div&gt;&amp;nbsp;JOGADOR" style="ellipse;whiteSpace=wrap;html=1;" vertex="1" parent="1">
          <mxGeometry x="210" y="140" width="120" height="80" as="geometry" />
        </mxCell>
        <mxCell id="IVq2sTEwQs9I_fWbFkm6-11" value="EXTEND" style="endArrow=classic;html=1;rounded=0;" edge="1" parent="1" source="IVq2sTEwQs9I_fWbFkm6-3" target="IVq2sTEwQs9I_fWbFkm6-10">
          <mxGeometry width="50" height="50" relative="1" as="geometry">
            <mxPoint x="490" y="450" as="sourcePoint" />
            <mxPoint x="540" y="400" as="targetPoint" />
          </mxGeometry>
        </mxCell>
      </root>
    </mxGraphModel>
  </diagram>
  <diagram id="zWg5YFFMcybODncf74jj" name="ENSINAR">
    <mxGraphModel dx="2187" dy="795" grid="1" gridSize="10" guides="1" tooltips="1" connect="1" arrows="1" fold="1" page="1" pageScale="1" pageWidth="827" pageHeight="1169" math="0" shadow="0">
      <root>
        <mxCell id="0" />
        <mxCell id="1" parent="0" />
        <mxCell id="_tzNztvWrp4DEHglaLsV-14" value="" style="whiteSpace=wrap;html=1;aspect=fixed;" vertex="1" parent="1">
          <mxGeometry x="40" y="90" width="600" height="600" as="geometry" />
        </mxCell>
        <mxCell id="_tzNztvWrp4DEHglaLsV-7" value="EXTENDS" style="edgeStyle=orthogonalEdgeStyle;rounded=0;orthogonalLoop=1;jettySize=auto;html=1;" edge="1" parent="1" source="d-oemiHUIfRcXvWGXM9r-1" target="_tzNztvWrp4DEHglaLsV-8">
          <mxGeometry relative="1" as="geometry">
            <mxPoint x="480" y="400" as="targetPoint" />
          </mxGeometry>
        </mxCell>
        <mxCell id="_tzNztvWrp4DEHglaLsV-10" value="EXTENDS" style="edgeStyle=orthogonalEdgeStyle;rounded=0;orthogonalLoop=1;jettySize=auto;html=1;" edge="1" parent="1" source="d-oemiHUIfRcXvWGXM9r-1" target="_tzNztvWrp4DEHglaLsV-9">
          <mxGeometry relative="1" as="geometry" />
        </mxCell>
        <mxCell id="_tzNztvWrp4DEHglaLsV-13" value="EXTENDS" style="edgeStyle=orthogonalEdgeStyle;rounded=0;orthogonalLoop=1;jettySize=auto;html=1;" edge="1" parent="1" source="d-oemiHUIfRcXvWGXM9r-1" target="_tzNztvWrp4DEHglaLsV-12">
          <mxGeometry relative="1" as="geometry" />
        </mxCell>
        <mxCell id="d-oemiHUIfRcXvWGXM9r-1" value="ESCOLHER" style="ellipse;whiteSpace=wrap;html=1;" vertex="1" parent="1">
          <mxGeometry x="200" y="360" width="120" height="80" as="geometry" />
        </mxCell>
        <mxCell id="_tzNztvWrp4DEHglaLsV-6" style="edgeStyle=orthogonalEdgeStyle;rounded=0;orthogonalLoop=1;jettySize=auto;html=1;entryX=0;entryY=0.5;entryDx=0;entryDy=0;" edge="1" parent="1" source="_tzNztvWrp4DEHglaLsV-1" target="d-oemiHUIfRcXvWGXM9r-1">
          <mxGeometry relative="1" as="geometry" />
        </mxCell>
        <mxCell id="_tzNztvWrp4DEHglaLsV-1" value="JOGADOR" style="shape=umlActor;verticalLabelPosition=bottom;verticalAlign=top;html=1;outlineConnect=0;" vertex="1" parent="1">
          <mxGeometry x="-60" y="370" width="30" height="60" as="geometry" />
        </mxCell>
        <mxCell id="_tzNztvWrp4DEHglaLsV-8" value="TREINAR" style="ellipse;whiteSpace=wrap;html=1;" vertex="1" parent="1">
          <mxGeometry x="420" y="360" width="120" height="80" as="geometry" />
        </mxCell>
        <mxCell id="_tzNztvWrp4DEHglaLsV-9" value="&lt;div&gt;FAZER LIÇÕES&lt;/div&gt;" style="ellipse;whiteSpace=wrap;html=1;" vertex="1" parent="1">
          <mxGeometry x="201" y="545" width="118" height="80" as="geometry" />
        </mxCell>
        <mxCell id="_tzNztvWrp4DEHglaLsV-12" value="ANÁLISAR" style="ellipse;whiteSpace=wrap;html=1;" vertex="1" parent="1">
          <mxGeometry x="200" y="160" width="120" height="80" as="geometry" />
        </mxCell>
      </root>
    </mxGraphModel>
  </diagram>
  <diagram id="tc64J-qwunAoCi2Veby8" name="CLASSIFICAÇÕES">
    <mxGraphModel dx="938" dy="548" grid="1" gridSize="10" guides="1" tooltips="1" connect="1" arrows="1" fold="1" page="1" pageScale="1" pageWidth="827" pageHeight="1169" math="0" shadow="0">
      <root>
        <mxCell id="0" />
        <mxCell id="1" parent="0" />
        <mxCell id="Dd2EHqptr9EitXvF5POJ-1" value="" style="whiteSpace=wrap;html=1;aspect=fixed;" vertex="1" parent="1">
          <mxGeometry x="120" y="120" width="520" height="520" as="geometry" />
        </mxCell>
        <mxCell id="tE-einMN4ikjZAKcOZ63-4" style="edgeStyle=orthogonalEdgeStyle;rounded=0;orthogonalLoop=1;jettySize=auto;html=1;" edge="1" parent="1" source="tE-einMN4ikjZAKcOZ63-1" target="tE-einMN4ikjZAKcOZ63-2">
          <mxGeometry relative="1" as="geometry" />
        </mxCell>
        <mxCell id="tE-einMN4ikjZAKcOZ63-1" value="JOGADOR" style="shape=umlActor;verticalLabelPosition=bottom;verticalAlign=top;html=1;outlineConnect=0;" vertex="1" parent="1">
          <mxGeometry x="70" y="350" width="30" height="60" as="geometry" />
        </mxCell>
        <mxCell id="tE-einMN4ikjZAKcOZ63-6" value="EXTENDS" style="edgeStyle=orthogonalEdgeStyle;rounded=0;orthogonalLoop=1;jettySize=auto;html=1;" edge="1" parent="1" source="tE-einMN4ikjZAKcOZ63-2" target="tE-einMN4ikjZAKcOZ63-7">
          <mxGeometry relative="1" as="geometry">
            <mxPoint x="540" y="380" as="targetPoint" />
          </mxGeometry>
        </mxCell>
        <mxCell id="tE-einMN4ikjZAKcOZ63-8" value="EXTENDS" style="edgeStyle=orthogonalEdgeStyle;rounded=0;orthogonalLoop=1;jettySize=auto;html=1;" edge="1" parent="1" source="tE-einMN4ikjZAKcOZ63-2" target="tE-einMN4ikjZAKcOZ63-9">
          <mxGeometry relative="1" as="geometry">
            <mxPoint x="340" y="570" as="targetPoint" />
          </mxGeometry>
        </mxCell>
        <mxCell id="LL9PxKShksi8oz_HU7hG-1" value="EXTENDS" style="edgeStyle=orthogonalEdgeStyle;rounded=0;orthogonalLoop=1;jettySize=auto;html=1;" edge="1" parent="1" source="tE-einMN4ikjZAKcOZ63-2" target="LL9PxKShksi8oz_HU7hG-2">
          <mxGeometry relative="1" as="geometry">
            <mxPoint x="340" y="250" as="targetPoint" />
          </mxGeometry>
        </mxCell>
        <mxCell id="tE-einMN4ikjZAKcOZ63-2" value="VISUALIZAR" style="ellipse;whiteSpace=wrap;html=1;" vertex="1" parent="1">
          <mxGeometry x="280" y="340" width="120" height="80" as="geometry" />
        </mxCell>
        <mxCell id="tE-einMN4ikjZAKcOZ63-7" value="RANK" style="ellipse;whiteSpace=wrap;html=1;" vertex="1" parent="1">
          <mxGeometry x="480" y="340" width="120" height="80" as="geometry" />
        </mxCell>
        <mxCell id="tE-einMN4ikjZAKcOZ63-9" value="RANK PROPRIO" style="ellipse;whiteSpace=wrap;html=1;" vertex="1" parent="1">
          <mxGeometry x="280" y="530" width="120" height="80" as="geometry" />
        </mxCell>
        <mxCell id="LL9PxKShksi8oz_HU7hG-2" value="NIVEIS" style="ellipse;whiteSpace=wrap;html=1;" vertex="1" parent="1">
          <mxGeometry x="280" y="160" width="120" height="80" as="geometry" />
        </mxCell>
      </root>
    </mxGraphModel>
  </diagram>
  <diagram id="3EHyXXJJHHFpBDLfjnme" name="MENU">
    <mxGraphModel dx="1360" dy="795" grid="1" gridSize="10" guides="1" tooltips="1" connect="1" arrows="1" fold="1" page="1" pageScale="1" pageWidth="827" pageHeight="1169" math="0" shadow="0">
      <root>
        <mxCell id="0" />
        <mxCell id="1" parent="0" />
        <mxCell id="zeLRrwJ5YDDFcn5AuwmX-22" value="" style="whiteSpace=wrap;html=1;aspect=fixed;" vertex="1" parent="1">
          <mxGeometry x="144" y="100" width="540" height="540" as="geometry" />
        </mxCell>
        <mxCell id="zeLRrwJ5YDDFcn5AuwmX-3" style="edgeStyle=orthogonalEdgeStyle;rounded=0;orthogonalLoop=1;jettySize=auto;html=1;" edge="1" parent="1" source="zeLRrwJ5YDDFcn5AuwmX-1" target="zeLRrwJ5YDDFcn5AuwmX-2">
          <mxGeometry relative="1" as="geometry" />
        </mxCell>
        <mxCell id="zeLRrwJ5YDDFcn5AuwmX-1" value="&lt;div&gt;JOGADOR&lt;/div&gt;&lt;div&gt;&lt;br&gt;&lt;/div&gt;" style="shape=umlActor;verticalLabelPosition=bottom;verticalAlign=top;html=1;outlineConnect=0;" vertex="1" parent="1">
          <mxGeometry x="110" y="350" width="30" height="60" as="geometry" />
        </mxCell>
        <mxCell id="zeLRrwJ5YDDFcn5AuwmX-5" value="EXTENDS" style="edgeStyle=orthogonalEdgeStyle;rounded=0;orthogonalLoop=1;jettySize=auto;html=1;" edge="1" parent="1" source="zeLRrwJ5YDDFcn5AuwmX-2" target="zeLRrwJ5YDDFcn5AuwmX-4">
          <mxGeometry relative="1" as="geometry" />
        </mxCell>
        <mxCell id="zeLRrwJ5YDDFcn5AuwmX-6" value="EXTENDS" style="edgeStyle=orthogonalEdgeStyle;rounded=0;orthogonalLoop=1;jettySize=auto;html=1;" edge="1" parent="1" source="zeLRrwJ5YDDFcn5AuwmX-2" target="zeLRrwJ5YDDFcn5AuwmX-7">
          <mxGeometry relative="1" as="geometry">
            <mxPoint x="590" y="380" as="targetPoint" />
          </mxGeometry>
        </mxCell>
        <mxCell id="zeLRrwJ5YDDFcn5AuwmX-9" value="EXTENDS" style="edgeStyle=orthogonalEdgeStyle;rounded=0;orthogonalLoop=1;jettySize=auto;html=1;" edge="1" parent="1" source="zeLRrwJ5YDDFcn5AuwmX-2" target="zeLRrwJ5YDDFcn5AuwmX-10">
          <mxGeometry relative="1" as="geometry">
            <mxPoint x="400" y="500" as="targetPoint" />
          </mxGeometry>
        </mxCell>
        <mxCell id="zeLRrwJ5YDDFcn5AuwmX-2" value="ACESSAR MENU" style="ellipse;whiteSpace=wrap;html=1;" vertex="1" parent="1">
          <mxGeometry x="340" y="340" width="120" height="80" as="geometry" />
        </mxCell>
        <mxCell id="zeLRrwJ5YDDFcn5AuwmX-4" value="VISUALIZAR&lt;div&gt;ESTATÍSTICA&lt;/div&gt;&lt;div&gt;&lt;br&gt;&lt;/div&gt;" style="ellipse;whiteSpace=wrap;html=1;" vertex="1" parent="1">
          <mxGeometry x="340" y="160" width="120" height="80" as="geometry" />
        </mxCell>
        <mxCell id="zeLRrwJ5YDDFcn5AuwmX-7" value="CONFIGURAÇÕES DE PERFIM" style="ellipse;whiteSpace=wrap;html=1;" vertex="1" parent="1">
          <mxGeometry x="560" y="340" width="120" height="80" as="geometry" />
        </mxCell>
        <mxCell id="zeLRrwJ5YDDFcn5AuwmX-10" value="AJUSTE DE TEMA" style="ellipse;whiteSpace=wrap;html=1;" vertex="1" parent="1">
          <mxGeometry x="340" y="505" width="120" height="80" as="geometry" />
        </mxCell>
        <mxCell id="zeLRrwJ5YDDFcn5AuwmX-12" value="EXTENDS" style="endArrow=classic;html=1;rounded=0;" edge="1" parent="1" source="zeLRrwJ5YDDFcn5AuwmX-2" target="zeLRrwJ5YDDFcn5AuwmX-13">
          <mxGeometry width="50" height="50" relative="1" as="geometry">
            <mxPoint x="390" y="440" as="sourcePoint" />
            <mxPoint x="500" y="280" as="targetPoint" />
          </mxGeometry>
        </mxCell>
        <mxCell id="zeLRrwJ5YDDFcn5AuwmX-13" value="LISTAS DE AMIGOS" style="ellipse;whiteSpace=wrap;html=1;" vertex="1" parent="1">
          <mxGeometry x="480" y="230" width="120" height="80" as="geometry" />
        </mxCell>
        <mxCell id="zeLRrwJ5YDDFcn5AuwmX-14" value="" style="endArrow=classic;html=1;rounded=0;" edge="1" parent="1" source="zeLRrwJ5YDDFcn5AuwmX-2" target="zeLRrwJ5YDDFcn5AuwmX-15">
          <mxGeometry width="50" height="50" relative="1" as="geometry">
            <mxPoint x="390" y="440" as="sourcePoint" />
            <mxPoint x="500" y="470" as="targetPoint" />
          </mxGeometry>
        </mxCell>
        <mxCell id="zeLRrwJ5YDDFcn5AuwmX-20" value="EXTENDS" style="edgeLabel;html=1;align=center;verticalAlign=middle;resizable=0;points=[];" vertex="1" connectable="0" parent="zeLRrwJ5YDDFcn5AuwmX-14">
          <mxGeometry x="-0.4029" y="3" relative="1" as="geometry">
            <mxPoint as="offset" />
          </mxGeometry>
        </mxCell>
        <mxCell id="zeLRrwJ5YDDFcn5AuwmX-15" value="CAIXA DE MENSAGENS" style="ellipse;whiteSpace=wrap;html=1;" vertex="1" parent="1">
          <mxGeometry x="490" y="460" width="120" height="80" as="geometry" />
        </mxCell>
        <mxCell id="zeLRrwJ5YDDFcn5AuwmX-16" value="" style="endArrow=classic;html=1;rounded=0;" edge="1" parent="1" source="zeLRrwJ5YDDFcn5AuwmX-2" target="zeLRrwJ5YDDFcn5AuwmX-17">
          <mxGeometry width="50" height="50" relative="1" as="geometry">
            <mxPoint x="280" y="520" as="sourcePoint" />
            <mxPoint x="280" y="470" as="targetPoint" />
          </mxGeometry>
        </mxCell>
        <mxCell id="zeLRrwJ5YDDFcn5AuwmX-17" value="CONFIGURAÇÕES" style="ellipse;whiteSpace=wrap;html=1;" vertex="1" parent="1">
          <mxGeometry x="190" y="440" width="120" height="80" as="geometry" />
        </mxCell>
        <mxCell id="zeLRrwJ5YDDFcn5AuwmX-18" value="&lt;div&gt;AJUDA E SUPORTE&lt;/div&gt;" style="ellipse;whiteSpace=wrap;html=1;" vertex="1" parent="1">
          <mxGeometry x="200" y="240" width="120" height="80" as="geometry" />
        </mxCell>
        <mxCell id="zeLRrwJ5YDDFcn5AuwmX-19" value="EXTENDS" style="endArrow=classic;html=1;rounded=0;entryX=1;entryY=1;entryDx=0;entryDy=0;" edge="1" parent="1" source="zeLRrwJ5YDDFcn5AuwmX-2" target="zeLRrwJ5YDDFcn5AuwmX-18">
          <mxGeometry width="50" height="50" relative="1" as="geometry">
            <mxPoint x="390" y="440" as="sourcePoint" />
            <mxPoint x="440" y="390" as="targetPoint" />
          </mxGeometry>
        </mxCell>
        <mxCell id="zeLRrwJ5YDDFcn5AuwmX-21" value="EXTENDS" style="text;html=1;align=center;verticalAlign=middle;resizable=0;points=[];autosize=1;strokeColor=none;fillColor=none;" vertex="1" parent="1">
          <mxGeometry x="290" y="418" width="80" height="30" as="geometry" />
        </mxCell>
      </root>
    </mxGraphModel>
  </diagram>
</mxfile>
